<svg xmlns="http://www.w3.org/2000/svg" width="32" height="32" fill="none"><g clip-path="url(#a)"><rect width="32" height="32" fill="#A8E114" rx="8"/><g clip-path="url(#b)"><path fill="#000" d="M-10.652 8.46a5.929 5.929 0 0 1 5.929-5.929H9.752a5.929 5.929 0 0 1 5.929 5.93v15.45a5.929 5.929 0 0 1-5.93 5.928H-4.722a5.929 5.929 0 0 1-5.929-5.929V8.46Z"/><path fill="#fff" d="M-1.964 22.457V10.4h4.828c.887 0 1.627.132 2.22.395.592.263 1.038.628 1.336 1.095.298.463.447.997.447 1.601 0 .471-.094.885-.282 1.242a2.44 2.44 0 0 1-.777.872 3.186 3.186 0 0 1-1.12.477v.117c.46.02.89.15 1.29.39.405.239.732.574.984 1.006.25.428.376.938.376 1.53 0 .64-.159 1.212-.477 1.714-.314.498-.779.893-1.395 1.183-.616.29-1.376.436-2.278.436h-5.152Zm2.55-2.084h2.078c.71 0 1.228-.136 1.554-.406.326-.275.489-.64.489-1.095 0-.334-.08-.628-.242-.884a1.64 1.64 0 0 0-.689-.6c-.294-.145-.645-.218-1.054-.218H.585v3.203Zm0-4.928h1.89c.348 0 .659-.06.93-.183.274-.125.49-.302.647-.53.16-.227.241-.5.241-.818 0-.436-.155-.787-.465-1.054-.306-.267-.742-.4-1.307-.4H.585v2.985Z"/><path fill="#000" d="M15.68 8.46a5.929 5.929 0 0 0-5.928-5.929H-4.723a5.929 5.929 0 0 0-5.929 5.93v15.45a5.929 5.929 0 0 0 5.929 5.928H9.752a5.929 5.929 0 0 0 5.929-5.929V8.46Z"/><path fill="#fff" d="M13.405 9.683a4.876 4.876 0 0 0-4.876-4.876H-3.5a4.876 4.876 0 0 0-4.876 4.876v13.004A4.876 4.876 0 0 0-3.5 27.564H8.53a4.876 4.876 0 0 0 4.876-4.877V9.683Z"/><path fill="#000" d="M-2.833 14.62h2.578c.048-.333.144-.63.289-.888.145-.263.332-.487.56-.672a2.46 2.46 0 0 1 .788-.424c.295-.098.615-.147.96-.147.624 0 1.168.155 1.63.465.464.307.823.754 1.078 1.343.255.585.383 1.295.383 2.131 0 .86-.128 1.582-.383 2.167-.259.585-.62 1.026-1.083 1.325-.463.298-.999.447-1.607.447-.342 0-.658-.045-.948-.135a2.492 2.492 0 0 1-.783-.395 2.273 2.273 0 0 1-.566-.642 2.5 2.5 0 0 1-.318-.86l-2.578.012a4.812 4.812 0 0 0 1.566 2.973c.443.401.973.72 1.59.955.612.231 1.305.347 2.078.347 1.075 0 2.037-.243 2.885-.73.844-.487 1.511-1.191 2.002-2.114.486-.922.73-2.039.73-3.35 0-1.315-.248-2.433-.742-3.356-.495-.922-1.166-1.625-2.014-2.108-.848-.486-1.801-.73-2.861-.73-.699 0-1.346.098-1.943.295-.6.196-1.132.482-1.596.86-.463.372-.84.83-1.13 1.371-.294.542-.483 1.162-.565 1.86Z"/></g><g clip-path="url(#c)"><path fill="#000" d="M15.18 8.459A5.927 5.927 0 0 0 9.251 2.53H-5.219a5.927 5.927 0 0 0-5.928 5.928v15.446a5.927 5.927 0 0 0 5.928 5.927H9.252a5.927 5.927 0 0 0 5.927-5.927V8.46Z"/><path fill="#fff" d="M13.554 9.584a5.428 5.428 0 0 0-5.428-5.427h-12.22a5.428 5.428 0 0 0-5.428 5.427V22.78a5.428 5.428 0 0 0 5.428 5.428h12.22a5.428 5.428 0 0 0 5.428-5.428V9.584Z"/><path fill="#000" d="M-3.33 14.622h2.578c.047-.333.143-.63.288-.889a2.26 2.26 0 0 1 .56-.67c.227-.185.49-.327.788-.425.295-.098.614-.147.96-.147.624 0 1.167.155 1.63.465.463.306.822.754 1.077 1.342.256.585.383 1.295.383 2.131 0 .86-.127 1.582-.383 2.166-.259.585-.62 1.027-1.083 1.325-.463.298-.998.447-1.607.447a3.18 3.18 0 0 1-.947-.135 2.493 2.493 0 0 1-.783-.395 2.273 2.273 0 0 1-.565-.641 2.5 2.5 0 0 1-.318-.86l-2.578.012a4.81 4.81 0 0 0 1.566 2.973c.443.4.973.718 1.589.953.612.232 1.305.348 2.078.348 1.075 0 2.036-.244 2.884-.73.844-.487 1.51-1.191 2.001-2.114.487-.922.73-2.038.73-3.349 0-1.314-.247-2.433-.742-3.355-.494-.922-1.165-1.625-2.013-2.107-.847-.487-1.8-.73-2.86-.73-.699 0-1.346.098-1.943.294-.6.196-1.132.483-1.595.86-.463.372-.84.83-1.13 1.371-.294.541-.483 1.162-.565 1.86Z"/><path fill="#000" d="M-11.147 8.459A5.927 5.927 0 0 1-5.22 2.53H9.252a5.927 5.927 0 0 1 5.927 5.928v15.446a5.927 5.927 0 0 1-5.927 5.927H-5.22a5.927 5.927 0 0 1-5.927-5.927V8.46Z"/><path fill="#fff" d="M3.554 22.144V10.09h4.827c.887 0 1.626.132 2.219.394.592.263 1.038.628 1.336 1.095.298.463.447.997.447 1.601 0 .471-.094.885-.282 1.242a2.44 2.44 0 0 1-.777.872 3.185 3.185 0 0 1-1.119.476v.118c.46.02.89.15 1.29.389.404.239.731.575.982 1.006.252.428.377.938.377 1.53 0 .64-.159 1.211-.476 1.713-.315.499-.78.893-1.396 1.184-.616.29-1.375.435-2.278.435h-5.15Zm2.549-2.084H8.18c.71 0 1.228-.135 1.554-.406.325-.274.488-.64.488-1.095 0-.333-.08-.627-.241-.883a1.639 1.639 0 0 0-.689-.6c-.294-.145-.645-.218-1.054-.218H6.103v3.202Zm0-4.926h1.89c.348 0 .658-.061.93-.183.274-.125.49-.302.647-.53.16-.227.241-.5.241-.818 0-.435-.155-.787-.465-1.053-.306-.267-.742-.4-1.307-.4H6.103v2.984Z"/></g><g clip-path="url(#d)"><path fill="#000" d="M15.674 23.904a5.929 5.929 0 0 0 5.929 5.928h14.475a5.929 5.929 0 0 0 5.929-5.928V8.454a5.929 5.929 0 0 0-5.93-5.93H21.604a5.929 5.929 0 0 0-5.929 5.93v15.45Z"/><path fill="#fff" d="M17.3 22.778a5.429 5.429 0 0 0 5.429 5.429h12.223c2.999 0 5.43-2.43 5.43-5.429V9.579a5.43 5.43 0 0 0-5.43-5.429H22.73a5.43 5.43 0 0 0-5.43 5.43v13.198Z"/><path fill="#000" d="M34.188 17.743H31.61c-.047.334-.143.63-.288.89a2.262 2.262 0 0 1-.56.67 2.46 2.46 0 0 1-.788.424 3.019 3.019 0 0 1-.96.148c-.624 0-1.168-.155-1.631-.465-.463-.307-.822-.754-1.078-1.343-.255-.585-.382-1.295-.382-2.131 0-.86.127-1.582.383-2.167.259-.585.62-1.026 1.083-1.325.463-.298.999-.447 1.607-.447.342 0 .658.045.948.135.294.09.555.222.783.395.228.176.416.39.565.642a2.5 2.5 0 0 1 .318.86l2.58-.013a4.812 4.812 0 0 0-1.566-2.973 5.015 5.015 0 0 0-1.59-.954c-.613-.231-1.306-.347-2.079-.347-1.076 0-2.037.243-2.885.73-.844.487-1.511 1.191-2.002 2.114-.486.922-.73 2.039-.73 3.35 0 1.315.247 2.433.742 3.356.495.922 1.166 1.625 2.014 2.107.847.487 1.801.73 2.861.73.699 0 1.346-.098 1.943-.294a4.928 4.928 0 0 0 1.596-.86c.463-.372.84-.83 1.13-1.371.294-.542.483-1.162.565-1.86Z"/><path fill="#000" d="M42.007 23.904a5.929 5.929 0 0 1-5.93 5.928H21.604a5.929 5.929 0 0 1-5.929-5.928V8.454a5.929 5.929 0 0 1 5.929-5.93h14.475a5.929 5.929 0 0 1 5.929 5.93v15.45Z"/><path fill="#fff" d="M33.32 9.907v12.058H28.49c-.887 0-1.627-.132-2.22-.395-.592-.263-1.038-.628-1.336-1.095-.298-.463-.447-.997-.447-1.601 0-.471.094-.885.282-1.243a2.44 2.44 0 0 1 .777-.871 3.186 3.186 0 0 1 1.119-.477v-.118a2.753 2.753 0 0 1-2.273-1.395c-.25-.428-.377-.938-.377-1.53 0-.64.16-1.212.477-1.714.314-.499.78-.893 1.396-1.184.616-.29 1.376-.435 2.278-.435h5.152Zm-2.55 2.084H28.69c-.71 0-1.228.135-1.554.406-.326.275-.489.64-.489 1.095 0 .334.08.628.242.883.16.256.39.456.689.601.294.145.645.218 1.053.218h2.138V11.99Zm0 4.928h-1.89c-.35 0-.66.06-.93.183-.275.125-.491.302-.648.53-.161.227-.242.5-.242.818 0 .436.155.787.466 1.054.306.267.741.4 1.307.4h1.937v-2.985Z"/></g><g clip-path="url(#e)"><path fill="#000" d="M42.007 23.905a5.927 5.927 0 0 1-5.928 5.927H21.608a5.927 5.927 0 0 1-5.927-5.927V8.46a5.927 5.927 0 0 1 5.927-5.928h14.471a5.927 5.927 0 0 1 5.928 5.928v15.446Z"/><path fill="#fff" d="M33.321 9.908v12.055h-4.827c-.887 0-1.626-.132-2.219-.395-.592-.263-1.038-.628-1.336-1.095-.298-.463-.447-.996-.447-1.6 0-.472.094-.886.282-1.243.188-.353.447-.643.777-.87a3.185 3.185 0 0 1 1.119-.478v-.117c-.46-.02-.89-.15-1.29-.389a2.75 2.75 0 0 1-.982-1.006c-.252-.428-.377-.938-.377-1.53 0-.64.159-1.211.476-1.714.314-.498.78-.892 1.396-1.183.616-.29 1.375-.435 2.277-.435h5.151Zm-2.549 2.083h-2.078c-.71 0-1.228.136-1.553.407-.326.274-.49.64-.49 1.094 0 .334.081.628.242.883.161.255.39.456.689.6.294.146.645.218 1.054.218h2.136v-3.202Zm0 4.927h-1.89c-.349 0-.659.06-.93.183-.274.125-.49.302-.647.53-.16.227-.241.5-.241.817 0 .436.155.787.465 1.054.306.267.742.4 1.307.4h1.936v-2.984Z"/><path fill="#000" d="M15.68 23.905a5.927 5.927 0 0 0 5.928 5.927h14.471a5.927 5.927 0 0 0 5.928-5.927V8.46a5.927 5.927 0 0 0-5.928-5.928H21.608a5.927 5.927 0 0 0-5.927 5.928v15.446Z"/><path fill="#fff" d="M17.956 22.683a4.875 4.875 0 0 0 4.875 4.875h12.025a4.875 4.875 0 0 0 4.876-4.875V9.682a4.875 4.875 0 0 0-4.876-4.875H22.831a4.875 4.875 0 0 0-4.875 4.875v13Z"/><path fill="#000" d="M30.975 18.055h-2.578c-.047.333-.143.63-.288.889a2.26 2.26 0 0 1-.56.67c-.227.185-.49.326-.788.424a3.014 3.014 0 0 1-.96.148c-.624 0-1.167-.155-1.63-.465-.463-.307-.822-.754-1.078-1.343-.255-.584-.382-1.294-.382-2.13 0-.86.127-1.582.382-2.167.26-.584.62-1.026 1.084-1.324.463-.298.998-.447 1.606-.447.342 0 .658.045.948.135.294.09.555.222.783.394.228.177.416.39.565.642.153.251.259.538.318.86l2.578-.012a4.811 4.811 0 0 0-1.566-2.973 5.015 5.015 0 0 0-1.589-.953c-.612-.232-1.305-.348-2.078-.348-1.075 0-2.036.244-2.884.73-.844.487-1.51 1.191-2.001 2.113-.487.922-.73 2.039-.73 3.35 0 1.314.247 2.433.741 3.355.495.922 1.166 1.624 2.014 2.107.847.487 1.8.73 2.86.73.699 0 1.346-.098 1.943-.294a4.923 4.923 0 0 0 1.595-.86 4.42 4.42 0 0 0 1.13-1.371c.294-.542.483-1.162.565-1.86Z"/></g></g><defs><clipPath id="a"><rect width="32" height="32" fill="#fff" rx="8"/></clipPath><clipPath id="b"><rect width="26.332" height="27.308" fill="#fff" rx="5.928" transform="matrix(-1 0 0 1 15.68 2.531)"/></clipPath><clipPath id="c"><rect width="26.326" height="27.301" x="-11.147" y="2.531" fill="#fff" rx="5.927"/></clipPath><clipPath id="d"><rect width="26.332" height="27.308" x="42.007" y="29.832" fill="#fff" rx="5.928" transform="rotate(-180 42.007 29.832)"/></clipPath><clipPath id="e"><rect width="26.326" height="27.301" fill="#fff" rx="5.927" transform="matrix(1 0 0 -1 15.68 29.832)"/></clipPath></defs></svg>
